<svg width="257" height="257" viewBox="0 0 257 257" fill="none" xmlns="http://www.w3.org/2000/svg">
<path d="M246.257 78.3041C241.455 67.3203 235.1 57.0843 227.384 47.9101C215.981 33.9434 201.749 22.5509 185.625 14.4824C169.502 6.41406 151.853 1.85261 133.841 1.09833C115.829 0.34405 97.861 3.41403 81.1199 10.1064C64.3794 16.7986 49.2452 26.9614 36.7139 39.9259C24.1825 52.8902 14.5381 68.3623 8.41523 85.3239C2.2924 102.285 -0.170032 120.352 1.19013 138.333C2.5504 156.316 7.70221 173.805 16.3067 189.652C24.9112 205.499 36.7733 219.343 51.1121 230.274C60.3126 237.428 70.479 243.243 81.3086 247.547C96.4918 253.772 112.742 256.977 129.151 256.987C163.022 256.912 195.482 243.407 219.415 219.431C243.348 195.456 256.802 162.967 256.826 129.087C256.851 111.61 253.253 94.3185 246.257 78.3041ZM129.057 27.0496C143.793 27.0481 158.35 30.2696 171.71 36.4887C168.452 37.8967 165.027 38.8802 161.518 39.4149C149.974 41.0865 139.279 46.4477 131.031 54.6984C122.783 62.9491 117.423 73.6468 115.752 85.1946C115.018 91.6708 112.073 97.6958 107.414 102.253C102.756 106.81 96.6683 109.619 90.1788 110.208C78.6343 111.88 67.9397 117.241 59.6914 125.492C51.4432 133.743 46.0834 144.44 44.4123 155.988C43.8465 162.146 41.2198 167.933 36.9575 172.412C29.6032 156.869 26.2995 139.716 27.3538 122.552C28.408 105.388 33.7859 88.7692 42.9871 74.2424C52.1882 59.7165 64.9136 47.7545 79.979 39.47C95.0443 31.1856 111.96 26.8481 129.151 26.8608L129.057 27.0496ZM51.0178 195.16C52.1501 194.122 53.2825 193.178 54.4149 192.045C62.81 183.904 68.1988 173.157 69.7019 161.557C70.3113 155.037 73.2216 148.946 77.9115 144.378C82.4249 139.679 88.4992 136.792 94.9914 136.26C106.536 134.589 117.23 129.227 125.479 120.976C133.727 112.726 139.087 102.028 140.758 90.4805C141.167 83.6608 144.092 77.2356 148.968 72.4518C153.593 67.8441 159.724 65.0619 166.236 64.6173C176.842 63.1577 186.733 58.4414 194.546 51.1194C203.441 58.5015 210.977 67.382 216.816 77.3602C216.457 77.8444 216.046 78.288 215.589 78.6816C211.085 83.422 205.018 86.3726 198.509 86.9881C186.952 88.6305 176.242 93.9824 167.988 102.238C159.735 110.494 154.384 121.208 152.742 132.768C152.077 139.266 149.187 145.334 144.561 149.944C139.934 154.555 133.857 157.424 127.358 158.065C115.78 159.723 105.046 165.074 96.7494 173.321C88.4539 181.569 83.0383 192.273 81.3086 203.844C80.8009 208.457 79.2165 212.887 76.6848 216.776C67.003 211.026 58.3318 203.724 51.0178 195.16ZM129.057 231.595C119.482 231.606 109.952 230.271 100.748 227.631C103.897 221.76 105.943 215.361 106.787 208.753C107.448 202.269 110.326 196.212 114.932 191.604C119.539 186.996 125.595 184.118 132.077 183.456C143.638 181.803 154.354 176.45 162.621 168.198C170.888 159.946 176.262 149.237 177.938 137.676C178.599 131.192 181.476 125.135 186.083 120.527C190.69 115.919 196.745 113.041 203.227 112.379C211.928 111.248 220.22 108.007 227.384 102.94C231.363 118.023 231.834 133.816 228.762 149.11C225.691 164.403 219.157 178.79 209.664 191.166C200.171 203.54 187.97 213.577 173.997 220.503C160.024 227.43 144.652 231.063 129.057 231.123V231.595Z" fill="white"/>
</svg>
