<svg width="257" height="256" viewBox="0 0 257 256" fill="none" xmlns="http://www.w3.org/2000/svg">
<path d="M246.257 77.3175C241.455 66.3338 235.1 56.0977 227.384 46.9236C215.981 32.9569 201.749 21.5643 185.625 13.4959C169.502 5.4275 151.853 0.866052 133.841 0.111773C115.829 -0.642507 97.861 2.42747 81.1199 9.1198C64.3794 15.812 49.2452 25.9749 36.7139 38.9393C24.1825 51.9036 14.5381 67.3758 8.41523 84.3374C2.2924 101.299 -0.170032 119.365 1.19013 137.347C2.5504 155.329 7.70221 172.819 16.3067 188.665C24.9112 204.512 36.7733 218.357 51.1121 229.287C60.3126 236.441 70.479 242.257 81.3086 246.561C96.4918 252.785 112.742 255.991 129.151 256C163.022 255.925 195.482 242.42 219.415 218.445C243.348 194.469 256.802 161.981 256.826 128.1C256.851 110.623 253.253 93.3319 246.257 77.3175ZM129.057 26.063C143.793 26.0615 158.35 29.2831 171.71 35.5021C168.452 36.9102 165.027 37.8936 161.518 38.4284C149.974 40.0999 139.279 45.4612 131.031 53.7119C122.783 61.9625 117.423 72.6603 115.752 84.2081C115.018 90.6843 112.073 96.7092 107.414 101.266C102.756 105.824 96.6683 108.633 90.1788 109.222C78.6343 110.893 67.9397 116.255 59.6914 124.506C51.4432 132.756 46.0834 143.454 44.4123 155.001C43.8465 161.16 41.2198 166.947 36.9575 171.426C29.6032 155.882 26.2995 138.729 27.3538 121.565C28.408 104.401 33.7859 87.7827 42.9871 73.2559C52.1882 58.7299 64.9136 46.7679 79.979 38.4835C95.0443 30.199 111.96 25.8615 129.151 25.8742L129.057 26.063ZM51.0178 194.174C52.1501 193.135 53.2825 192.192 54.4149 191.059C62.81 182.918 68.1988 172.17 69.7019 160.571C70.3113 154.05 73.2216 147.96 77.9115 143.391C82.4249 138.693 88.4992 135.805 94.9914 135.274C106.536 133.602 117.23 128.241 125.479 119.99C133.727 111.739 139.087 101.042 140.758 89.494C141.167 82.6742 144.092 76.249 148.968 71.4653C153.593 66.8576 159.724 64.0754 166.236 63.6307C176.842 62.1711 186.733 57.4549 194.546 50.1329C203.441 57.5149 210.977 66.3954 216.816 76.3736C216.457 76.8578 216.046 77.3015 215.589 77.6951C211.085 82.4354 205.018 85.3861 198.509 86.0015C186.952 87.6439 176.242 92.9959 167.988 101.251C159.735 109.508 154.384 120.221 152.742 131.781C152.077 138.279 149.187 144.348 144.561 148.958C139.934 153.569 133.857 156.437 127.358 157.078C115.78 158.737 105.046 164.088 96.7494 172.335C88.4539 180.582 83.0383 191.286 81.3086 202.858C80.8009 207.471 79.2165 211.9 76.6848 215.789C67.003 210.039 58.3318 202.737 51.0178 194.174ZM129.057 230.609C119.482 230.619 109.952 229.284 100.748 226.644C103.897 220.773 105.943 214.374 106.787 207.766C107.448 201.282 110.326 195.225 114.932 190.617C119.539 186.009 125.595 183.131 132.077 182.469C143.638 180.816 154.354 175.464 162.621 167.211C170.888 158.959 176.262 148.251 177.938 136.69C178.599 130.206 181.476 124.149 186.083 119.541C190.69 114.932 196.745 112.054 203.227 111.393C211.928 110.261 220.22 107.021 227.384 101.954C231.363 117.036 231.834 132.83 228.762 148.123C225.691 163.416 219.157 177.804 209.664 190.179C200.171 202.554 187.97 212.59 173.997 219.517C160.024 226.443 144.652 230.076 129.057 230.137V230.609Z" fill="black"/>
</svg>
